The.Collection.2012.720p.CAM.XVID-26K
 
http://uk.imdb.com/title/tt1748227/

Plot:
A man who escapes from the vicious grips of the serial killer known as "The Collector" is blackmailed to rescue an innocent girl from the killer's booby-trapped warehouse.

Sources - Audio-friend....Thanks 
         VIDEO-friend.....Thanks 
         Subs-N/A....
Video
ID                                       : 0
Format                                   : MPEG-4 Visual
Format profile                           : Advanced Simple@L5
Format settings, BVOP                    : 2
Format settings, QPel                    : No
Format settings, GMC                     : No warppoints
Format settings, Matrix                  : Default (H.263)
Muxing mode                              : Packed bitstream
Codec ID                                 : XVID
Codec ID/Hint                            : XviD
Duration                                 : 1h 13mn
Bit rate                                 : 1 994 Kbps
Width                                    : 1 280 pixels
Height                                   : 650 pixels
Display aspect ratio                     : 1.969
Frame rate                               : 29.970 fps
Color space                              : YUV
Chroma subsampling                       : 4:2:0
Bit depth                                : 8 bits
Scan type                                : Progressive
Compression mode                         : Lossy
Bits/(Pixel*Frame)                       : 0.080
Stream size                              : 1.02 GiB (86%)
Writing library                          : XviD 64

Audio
ID                                       : 1
Format                                   : MPEG Audio
Format version                           : Version 1
Format profile                           : Layer 3
Mode                                     : Joint stereo
Mode extension                           : MS Stereo
Codec ID                                 : 55
Codec ID/Hint                            : MP3
Duration                                 : 1h 13mn
Bit rate mode                            : Constant
Bit rate                                 : 320 Kbps
Channel(s)                               : 2 channels
Sampling rate                            : 48.0 KHz
Compression mode                         : Lossy
Delay relative to video                  : 17ms
Stream size                              : 168 MiB (14%)
Alignment                                : Split accross interleaves
Interleave, duration                     : 6547 ms (196.20 video frames)
Writing library                          : LAME3.99.5

Notes -
ran a few filters turned out preety nice... it is watachable on the darker scenes.. slightly cropped from the right and left.. other than that a decent copy for a first cam.. enjoy
 
http://www.shotpix.com/images/28527923033898307649.png
 
http://www.shotpix.com/images/69839403536637757558.png
 
http://www.shotpix.com/images/02059760721735815521.png
 
http://www.shotpix.com/images/51619748816032568046.png
 
http://www.shotpix.com/images/31611531207414199123.png
 
http://www.shotpix.com/images/50745519291077778636.png
 
http://www.shotpix.com/images/36991726678806295018.png
 
http://www.shotpix.com/images/15174777854489574352.jpg
 
http://www.shotpix.com/images/04699402158959467301.png
 
http://www.shotpix.com/images/66144411480657055256.png
